# xmcd
#
# Track frame offsets:
#	150
#	18508
#	37752
#	59821
#	76313
#	92224
#	111202
#	129948
#	146959
#	164932
#	184412
#	196345
#	208548
#
# Disc length: 3080 seconds
#
# Revision: 1
# Processed by: cddbd v1.5.2PL0 Copyright (c) Steve Scherf et al.
# Submitted via: audiograbber 1.83.01
#
DISCID=c10c060d
DTITLE=Mountarillo - Mountarillo
DYEAR=2011
DGENRE=Country
TTITLE0=She Still Dances Alone
TTITLE1=One Night At The Last Call
TTITLE2=That´s Why I Came Around
TTITLE3=I Can´t Remember Your Name
TTITLE4=Your Cowboyhat
TTITLE5=Wish She Were Here
TTITLE6=The Highway Never Ends
TTITLE7=We Can´t Get Drunk Anymore
TTITLE8=I Don´t Know
TTITLE9=My Kind Of DJ
TTITLE10=Broken Heart - Still In Love
TTITLE11=A Ticket To Texas
TTITLE12=A Chance To Carry On
EXTD=
EXTT0=
EXTT1=
EXTT2=
EXTT3=
EXTT4=
EXTT5=
EXTT6=
EXTT7=
EXTT8=
EXTT9=
EXTT10=
EXTT11=
EXTT12=
PLAYORDER=
